<?xml version="1.0" encoding="UTF-8" ?>
<!DOCTYPE svg PUBLIC "-//W3C//DTD SVG 1.1//EN" "http://www.w3.org/Graphics/SVG/1.1/DTD/svg11.dtd">
<svg width="324pt" height="324pt" viewBox="0 0 324 324" version="1.1" xmlns="http://www.w3.org/2000/svg">
<g id="#0b0b0bff">
<path fill="#0b0b0b" opacity="1.00" d=" M 154.19 80.55 C 162.92 79.22 171.99 80.30 180.07 83.92 C 179.85 89.26 178.91 94.62 176.44 99.40 C 171.28 110.25 165.15 120.59 158.92 130.85 C 156.10 135.07 153.80 139.73 150.12 143.32 C 150.50 122.35 154.58 101.54 154.19 80.55 Z" />
<path fill="#0b0b0b" opacity="1.00" d=" M 130.81 92.71 C 133.09 90.71 135.88 89.05 139.00 89.02 C 141.76 89.47 140.95 92.98 140.68 94.94 C 138.80 102.92 135.22 110.35 131.80 117.76 C 124.85 131.69 117.48 145.54 108.06 157.98 C 105.92 160.57 103.49 163.47 100.01 164.10 C 98.56 164.46 96.67 163.72 96.67 162.00 C 95.84 155.06 101.00 149.55 104.21 143.95 C 102.39 144.67 100.27 145.18 99.19 146.98 C 94.19 153.97 89.13 161.36 87.55 169.98 C 79.50 162.49 76.17 150.53 79.07 139.94 C 81.85 128.87 91.58 119.81 102.95 118.24 C 106.94 117.59 110.98 118.23 114.89 119.04 C 117.30 108.90 122.79 99.43 130.81 92.71 Z" />
<path fill="#0b0b0b" opacity="1.00" d=" M 189.70 91.98 C 198.45 100.23 208.78 107.03 220.39 110.43 C 226.02 112.07 232.09 115.01 234.18 120.93 C 227.49 121.76 220.50 119.77 214.03 122.07 C 211.20 123.28 213.16 126.75 214.76 128.17 C 220.75 133.26 229.43 135.27 237.02 133.02 C 240.06 132.22 243.04 130.62 244.84 127.96 C 246.13 126.36 246.81 124.06 248.95 123.39 C 248.90 133.16 242.67 142.68 233.84 146.84 C 224.94 151.37 214.64 149.28 205.21 151.38 C 204.60 152.95 206.24 153.18 207.35 153.55 C 213.03 155.16 218.93 153.88 224.70 153.70 C 223.85 159.77 217.78 163.78 212.09 164.68 C 204.33 165.80 196.51 166.75 188.95 168.91 C 180.27 171.07 172.15 175.61 163.04 175.90 C 151.07 176.77 139.22 172.13 130.19 164.40 C 123.07 173.76 110.33 178.25 98.98 174.86 C 101.69 172.28 104.50 169.76 106.70 166.71 C 120.99 146.85 131.70 124.73 141.60 102.44 C 140.43 118.96 138.88 135.46 137.69 151.98 C 137.71 154.86 136.79 158.09 138.24 160.74 C 140.41 162.43 142.43 159.16 143.79 157.75 C 156.78 140.35 166.85 121.02 178.45 102.70 C 176.42 120.07 173.72 137.43 173.55 154.96 C 173.68 157.50 173.58 160.48 175.51 162.43 C 177.53 164.26 180.09 162.17 181.70 160.80 C 186.15 156.30 189.72 151.03 193.36 145.87 C 193.10 145.15 192.58 143.71 192.32 142.99 C 190.64 145.17 189.15 147.62 186.82 149.17 C 184.46 149.48 184.72 146.54 184.64 144.99 C 184.95 127.22 187.26 109.56 189.70 91.98 Z" />
<path fill="#0b0b0b" opacity="1.00" d=" M 157.96 191.32 C 161.05 191.24 164.16 191.26 167.25 191.44 C 167.42 193.56 167.62 195.69 167.86 197.81 C 170.92 199.16 173.79 200.88 176.61 202.67 C 178.61 201.93 180.62 201.22 182.64 200.56 C 184.19 203.06 185.71 205.59 187.18 208.15 C 185.52 209.50 183.82 210.83 182.11 212.12 C 182.24 215.45 182.25 218.80 182.07 222.14 C 183.74 223.48 185.42 224.81 187.12 226.11 C 185.74 228.77 184.21 231.34 182.57 233.85 C 180.60 233.12 178.63 232.40 176.68 231.65 C 173.82 233.52 170.89 235.30 167.79 236.74 C 167.58 238.78 167.40 240.82 167.21 242.87 C 164.10 242.91 160.99 242.91 157.88 242.86 C 157.71 240.81 157.57 238.76 157.38 236.72 C 154.31 235.30 151.41 233.58 148.62 231.68 C 146.59 232.42 144.56 233.13 142.52 233.82 C 140.99 231.29 139.47 228.75 137.99 226.19 C 139.71 224.85 141.42 223.50 143.10 222.11 C 142.77 218.80 142.78 215.46 143.10 212.14 C 141.37 210.82 139.65 209.50 137.94 208.17 C 139.46 205.58 141.02 203.03 142.67 200.53 C 144.68 201.23 146.70 201.94 148.70 202.67 C 151.32 200.79 154.25 199.41 157.03 197.80 C 157.94 195.84 157.62 193.44 157.96 191.32 M 160.39 209.59 C 154.85 211.08 152.55 219.02 157.11 222.84 C 160.91 227.12 168.32 225.10 170.07 219.87 C 172.52 214.13 166.17 207.70 160.39 209.59 Z" />
</g>
</svg>
