<?xml version="1.0" encoding="UTF-8" ?>
<!DOCTYPE svg PUBLIC "-//W3C//DTD SVG 1.1//EN" "http://www.w3.org/Graphics/SVG/1.1/DTD/svg11.dtd">
<svg width="324pt" height="324pt" viewBox="0 0 324 324" version="1.1" xmlns="http://www.w3.org/2000/svg">
<g id="#0c0c0cff">
<path fill="#0c0c0c" opacity="1.00" d=" M 154.22 80.52 C 162.97 79.24 171.96 80.36 180.08 83.86 C 179.84 89.21 178.92 94.60 176.44 99.40 C 170.27 112.24 162.94 124.47 155.36 136.51 C 153.86 138.97 152.10 141.26 150.10 143.33 C 150.55 122.35 154.52 101.53 154.22 80.52 Z" />
<path fill="#0c0c0c" opacity="1.00" d=" M 130.21 93.22 C 132.64 91.07 135.57 89.01 138.95 89.06 C 141.49 89.16 140.99 92.32 140.82 94.07 C 139.70 100.14 137.13 105.83 134.69 111.47 C 127.30 127.49 118.98 143.23 108.47 157.45 C 106.05 160.42 103.21 164.09 99.02 164.14 C 96.80 164.33 96.39 161.67 96.53 160.02 C 96.94 153.86 101.33 149.14 104.07 143.91 C 102.35 144.76 100.28 145.28 99.18 147.00 C 94.08 153.98 89.22 161.48 87.44 170.08 C 80.94 163.50 77.16 154.20 78.19 144.91 C 79.14 132.14 89.25 120.65 101.90 118.40 C 106.22 117.54 110.62 118.17 114.88 118.99 C 117.29 109.13 122.51 99.89 130.21 93.22 Z" />
<path fill="#0c0c0c" opacity="1.00" d=" M 189.71 91.95 C 198.07 99.88 207.90 106.51 218.98 109.96 C 225.13 111.72 231.88 114.55 234.28 121.03 C 228.50 121.38 222.69 120.53 216.94 121.26 C 215.24 121.56 212.93 121.92 212.49 123.93 C 213.18 128.20 217.43 130.50 221.08 131.98 C 227.50 134.74 235.21 134.67 241.35 131.22 C 244.68 129.34 245.93 125.40 248.91 123.12 C 249.05 132.72 243.07 142.10 234.58 146.47 C 226.59 150.77 217.26 149.83 208.55 150.73 C 207.25 151.10 204.92 150.67 205.01 152.62 C 211.26 155.63 218.32 153.82 224.93 153.75 C 223.54 159.68 217.97 163.80 212.14 164.67 C 204.38 165.82 196.55 166.73 188.99 168.90 C 180.29 171.07 172.15 175.60 163.04 175.90 C 151.07 176.77 139.25 172.12 130.21 164.43 C 123.03 173.77 110.37 178.18 98.97 174.93 C 101.66 172.30 104.47 169.75 106.70 166.70 C 121.00 146.84 131.71 124.71 141.61 102.41 C 140.40 119.28 138.82 136.13 137.61 153.01 C 137.51 155.31 137.26 157.67 137.77 159.95 C 139.25 163.26 142.39 159.42 143.75 157.80 C 156.76 140.36 166.89 121.02 178.46 102.62 C 176.41 120.35 173.57 138.05 173.58 155.94 C 173.72 158.61 173.94 162.31 177.02 163.25 C 179.58 162.92 181.54 161.06 183.21 159.25 C 186.92 155.05 190.17 150.47 193.36 145.87 C 193.11 145.16 192.62 143.73 192.37 143.02 C 190.52 145.61 188.43 148.07 185.77 149.88 C 184.94 147.69 184.47 145.38 184.65 143.03 C 185.17 125.91 187.32 108.89 189.71 91.95 Z" />
<path fill="#0c0c0c" opacity="1.00" d=" M 137.12 195.85 C 137.02 193.28 139.31 191.03 141.88 191.13 C 147.04 190.88 152.22 191.13 157.39 191.05 C 157.39 197.83 157.40 204.61 157.38 211.39 C 160.80 211.17 164.48 212.05 167.74 210.77 C 167.63 204.21 167.55 197.62 167.61 191.05 C 172.79 191.13 177.97 190.87 183.15 191.13 C 185.74 191.05 188.00 193.35 187.88 195.95 C 188.11 201.10 187.88 206.26 187.93 211.41 C 184.54 211.38 181.15 211.38 177.77 211.39 C 177.79 213.09 177.82 214.79 177.85 216.50 C 181.24 216.50 184.63 216.51 188.02 216.56 C 187.99 218.24 187.96 219.92 187.93 221.60 C 186.16 221.60 184.39 221.60 182.63 221.61 C 182.71 223.03 182.90 224.43 183.20 225.82 C 184.57 226.86 186.36 226.67 187.98 226.91 C 187.97 228.53 187.97 230.14 187.97 231.77 C 186.34 231.77 184.71 231.79 183.09 231.80 C 183.10 230.25 183.00 228.72 182.78 227.21 C 179.55 226.14 176.03 226.87 172.68 226.72 C 172.70 228.40 172.71 230.09 172.73 231.77 C 171.01 231.78 169.30 231.79 167.58 231.81 C 167.59 233.45 167.61 235.10 167.62 236.75 C 166.15 236.85 164.62 236.72 163.21 237.23 C 162.30 238.63 162.52 240.35 162.37 241.94 C 155.54 241.86 148.70 242.11 141.88 241.87 C 139.29 241.96 137.03 239.67 137.12 237.09 C 136.88 231.95 137.15 226.81 137.01 221.67 C 138.74 221.62 140.46 221.58 142.19 221.53 C 142.14 219.86 142.09 218.19 142.04 216.53 C 143.75 216.52 145.46 216.50 147.17 216.50 C 147.17 218.19 147.16 219.89 147.16 221.58 C 148.88 221.60 150.60 221.61 152.33 221.62 C 152.30 219.92 152.28 218.22 152.25 216.53 C 153.97 216.51 155.70 216.49 157.43 216.48 C 157.40 214.78 157.39 213.09 157.37 211.39 C 155.67 211.39 153.97 211.39 152.27 211.40 C 152.27 213.09 152.27 214.79 152.27 216.50 C 150.56 216.49 148.86 216.49 147.16 216.49 C 147.18 214.79 147.21 213.09 147.23 211.40 C 143.82 211.40 140.41 211.39 137.00 211.34 C 137.16 206.18 136.89 201.01 137.12 195.85 M 142.11 196.13 C 142.12 199.51 142.12 202.90 142.08 206.28 C 145.49 206.29 148.90 206.29 152.30 206.29 C 152.29 202.90 152.29 199.51 152.29 196.12 C 148.90 196.12 145.50 196.12 142.11 196.13 M 172.71 196.12 C 172.70 199.51 172.70 202.90 172.69 206.29 C 176.10 206.30 179.51 206.30 182.92 206.29 C 182.89 202.90 182.88 199.51 182.89 196.12 C 179.50 196.11 176.10 196.11 172.71 196.12 M 168.17 212.19 C 167.77 213.61 167.49 215.07 167.33 216.55 C 169.12 216.35 171.21 217.01 172.73 215.73 C 173.06 214.24 172.73 212.71 172.73 211.22 C 171.19 211.42 169.50 211.24 168.17 212.19 M 173.25 217.25 C 172.68 218.63 172.45 220.09 172.56 221.62 C 174.32 221.61 176.08 221.60 177.84 221.59 C 177.84 219.86 177.83 218.13 177.83 216.40 C 176.27 216.50 174.58 216.24 173.25 217.25 M 157.36 221.60 C 157.36 223.30 157.36 225.01 157.37 226.71 C 159.08 226.71 160.80 226.71 162.52 226.71 C 162.52 225.01 162.52 223.31 162.52 221.61 C 160.80 221.61 159.08 221.60 157.36 221.60 M 142.08 226.71 C 142.11 230.10 142.11 233.49 142.10 236.88 C 145.50 236.89 148.90 236.89 152.30 236.89 C 152.30 233.50 152.30 230.10 152.31 226.71 C 148.90 226.70 145.49 226.70 142.08 226.71 M 157.36 231.80 C 157.37 233.53 157.38 235.26 157.39 237.00 C 158.87 237.09 160.34 237.01 161.79 236.75 C 162.76 235.28 162.46 233.45 162.64 231.80 C 160.88 231.79 159.12 231.79 157.36 231.80 Z" />
<path fill="#0c0c0c" opacity="1.00" d=" M 144.65 198.67 C 146.35 198.66 148.06 198.65 149.76 198.64 C 149.76 200.34 149.77 202.04 149.78 203.75 C 148.06 203.75 146.35 203.75 144.65 203.75 C 144.65 202.05 144.65 200.36 144.65 198.67 Z" />
<path fill="#0c0c0c" opacity="1.00" d=" M 175.22 198.66 C 176.93 198.66 178.63 198.67 180.35 198.67 C 180.34 200.36 180.34 202.05 180.34 203.74 C 178.64 203.74 176.93 203.74 175.23 203.74 C 175.23 202.05 175.22 200.35 175.22 198.66 Z" />
<path fill="#0c0c0c" opacity="1.00" d=" M 144.66 229.26 C 146.36 229.25 148.06 229.25 149.77 229.25 C 149.77 230.94 149.77 232.63 149.78 234.33 C 148.08 234.32 146.37 234.32 144.66 234.33 C 144.66 232.63 144.66 230.94 144.66 229.26 Z" />
<path fill="#0c0c0c" opacity="1.00" d=" M 177.81 231.83 C 179.51 231.81 181.21 231.80 182.91 231.78 C 182.89 233.47 182.88 235.17 182.88 236.87 C 181.19 236.87 179.50 236.87 177.82 236.88 C 177.82 235.19 177.81 233.51 177.81 231.83 Z" />
<path fill="#0c0c0c" opacity="1.00" d=" M 172.73 236.91 C 174.41 236.90 176.10 236.89 177.79 236.88 C 177.79 238.57 177.79 240.26 177.79 241.95 C 176.10 241.95 174.41 241.94 172.72 241.94 C 172.72 240.26 172.72 238.58 172.73 236.91 Z" />
<path fill="#0c0c0c" opacity="1.00" d=" M 182.89 236.88 C 184.72 236.90 186.55 236.92 188.38 236.97 C 187.53 239.62 185.64 241.55 182.96 242.37 C 182.92 240.54 182.90 238.71 182.89 236.88 Z" />
</g>
</svg>
