<?xml version="1.0" encoding="UTF-8" ?>
<!DOCTYPE svg PUBLIC "-//W3C//DTD SVG 1.1//EN" "http://www.w3.org/Graphics/SVG/1.1/DTD/svg11.dtd">
<svg width="96pt" height="96pt" viewBox="0 0 96 96" version="1.1" xmlns="http://www.w3.org/2000/svg">
<g id="#000000ff">
<path fill="#000000" opacity="1.00" d=" M 17.34 12.47 C 19.16 11.91 21.10 12.03 22.99 11.98 C 40.67 12.06 58.37 11.91 76.05 12.05 C 80.26 11.93 84.05 15.68 83.95 19.90 C 84.06 38.28 83.97 56.67 84.00 75.06 C 84.45 79.59 80.73 84.11 76.06 83.96 C 57.70 84.05 39.34 83.97 20.98 84.00 C 16.49 84.43 11.92 80.75 12.04 76.10 C 11.94 57.72 12.03 39.33 12.00 20.95 C 11.68 17.33 13.84 13.63 17.34 12.47 M 20.00 28.00 C 20.00 44.00 20.00 60.00 20.00 76.00 C 38.67 76.00 57.33 76.00 76.00 76.00 C 76.00 60.00 76.00 44.00 76.00 28.00 C 57.33 28.00 38.67 28.00 20.00 28.00 Z" />
<path fill="#000000" opacity="1.00" d=" M 27.15 52.00 C 31.43 47.72 35.70 43.43 40.00 39.16 C 41.34 40.49 42.67 41.81 44.01 43.14 C 41.05 46.08 38.10 49.04 35.16 52.01 C 38.11 54.91 41.05 57.84 43.96 60.79 C 42.64 62.13 41.32 63.47 40.00 64.82 C 35.72 60.54 31.47 56.24 27.15 52.00 Z" />
<path fill="#000000" opacity="1.00" d=" M 51.97 43.12 C 53.31 41.80 54.65 40.48 55.99 39.16 C 60.29 43.43 64.57 47.71 68.84 52.00 C 64.53 56.24 60.28 60.55 55.99 64.82 C 54.67 63.48 53.35 62.15 52.02 60.82 C 54.93 57.85 57.88 54.92 60.84 52.00 C 57.89 49.03 54.94 46.07 51.97 43.12 Z" />
</g>
</svg>
