<?xml version="1.0" encoding="UTF-8" ?>
<!DOCTYPE svg PUBLIC "-//W3C//DTD SVG 1.1//EN" "http://www.w3.org/Graphics/SVG/1.1/DTD/svg11.dtd">
<svg width="96pt" height="96pt" viewBox="0 0 96 96" version="1.1" xmlns="http://www.w3.org/2000/svg">
<g id="#c02400ff">
<path fill="#c02400" opacity="1.00" d=" M 9.61 75.63 C 23.13 53.30 35.60 30.28 49.02 7.88 C 61.82 30.55 74.92 53.09 87.97 75.62 C 67.32 76.05 46.61 75.68 25.94 75.80 C 20.50 75.71 15.04 76.00 9.61 75.63 M 45.57 36.68 C 45.63 43.36 46.49 49.89 46.54 56.58 C 48.12 56.60 49.72 56.65 51.30 56.48 C 51.58 49.88 51.66 43.24 52.27 36.72 C 50.04 36.62 47.81 36.66 45.57 36.68 M 46.61 59.66 C 44.46 61.16 45.05 65.81 48.11 65.69 C 50.40 66.33 53.05 64.52 52.46 61.98 C 52.37 59.08 48.66 58.63 46.61 59.66 Z" />
</g>
</svg>
