<?xml version="1.0" encoding="UTF-8" ?>
<!DOCTYPE svg PUBLIC "-//W3C//DTD SVG 1.1//EN" "http://www.w3.org/Graphics/SVG/1.1/DTD/svg11.dtd">
<svg width="96pt" height="96pt" viewBox="0 0 96 96" version="1.1" xmlns="http://www.w3.org/2000/svg">
<g id="#ffaa00ff">
<path fill="#ffaa00" opacity="1.00" d=" M 44.09 16.17 C 45.78 13.46 47.03 10.46 49.11 8.02 C 61.88 30.67 74.96 53.16 88.00 75.65 C 61.98 75.97 35.94 75.77 9.91 75.76 C 21.10 55.78 32.74 36.05 44.09 16.17 M 45.57 36.65 C 45.57 43.32 46.52 49.94 46.53 56.61 C 48.11 56.58 49.70 56.56 51.29 56.55 C 51.64 50.18 51.54 43.79 52.25 37.45 L 53.37 36.73 C 50.79 36.38 48.17 36.86 45.57 36.65 M 47.35 59.36 C 44.41 60.04 44.69 65.62 47.89 65.68 C 50.21 66.38 53.05 64.65 52.45 62.01 C 52.45 59.37 49.38 58.81 47.35 59.36 Z" />
</g>
</svg>
