<?xml version="1.0" encoding="UTF-8" ?>
<!DOCTYPE svg PUBLIC "-//W3C//DTD SVG 1.1//EN" "http://www.w3.org/Graphics/SVG/1.1/DTD/svg11.dtd">
<svg width="96pt" height="96pt" viewBox="0 0 96 96" version="1.1" xmlns="http://www.w3.org/2000/svg">
<g id="#2f65a2ff">
<path fill="#2f65a2" opacity="1.00" d=" M 14.95 13.83 C 17.42 11.64 20.92 12.04 23.97 11.97 C 31.02 12.13 38.07 11.78 45.11 12.14 C 51.08 12.48 56.07 18.00 55.95 23.95 C 56.08 36.19 55.96 48.44 56.00 60.69 C 52.02 56.67 48.02 52.68 44.01 48.69 C 43.99 52.47 44.00 56.25 44.00 60.03 C 50.71 66.65 57.32 73.37 63.99 80.03 C 63.98 61.36 64.05 42.69 63.96 24.02 C 64.03 19.66 62.34 15.54 59.95 11.97 C 65.35 12.10 70.75 11.86 76.14 12.06 C 80.33 11.98 84.07 15.75 83.95 19.95 C 84.08 38.28 83.96 56.62 84.00 74.96 C 84.16 77.84 83.04 80.83 80.61 82.51 C 78.13 84.37 74.87 83.95 71.97 84.03 C 64.92 83.87 57.87 84.21 50.84 83.88 C 44.88 83.50 39.93 77.98 40.05 72.04 C 39.93 59.80 40.03 47.56 40.01 35.32 C 44.03 39.27 48.00 43.28 51.99 47.27 C 52.00 43.53 51.99 39.79 52.01 36.05 C 45.39 29.33 38.67 22.71 32.00 16.04 C 32.02 34.70 31.95 53.37 32.03 72.04 C 31.97 76.38 33.67 80.45 36.01 84.02 C 30.66 83.91 25.31 84.13 19.96 83.95 C 15.75 84.08 11.96 80.31 12.05 76.10 C 11.93 57.75 12.04 39.40 12.00 21.05 C 11.89 18.36 12.73 15.51 14.95 13.83 Z" />
</g>
</svg>
