<?xml version="1.0" encoding="UTF-8" ?>
<!DOCTYPE svg PUBLIC "-//W3C//DTD SVG 1.1//EN" "http://www.w3.org/Graphics/SVG/1.1/DTD/svg11.dtd">
<svg width="96pt" height="96pt" viewBox="0 0 96 96" version="1.1" xmlns="http://www.w3.org/2000/svg">
<g id="#2f65a2ff">
<path fill="#2f65a2" opacity="1.00" d=" M 40.50 8.75 C 48.99 7.22 58.06 8.24 65.78 12.20 C 75.72 17.01 83.37 26.23 86.38 36.84 C 89.46 47.31 87.99 59.02 82.36 68.37 C 76.55 78.31 66.21 85.38 54.88 87.35 C 38.93 90.39 21.70 82.39 13.61 68.34 C 7.28 57.86 6.29 44.42 10.89 33.09 C 15.78 20.65 27.31 11.06 40.50 8.75 M 44.00 28.00 C 44.00 30.67 44.00 33.33 44.00 36.00 C 46.67 36.00 49.33 36.00 52.00 36.00 C 52.00 33.33 52.00 30.67 52.00 28.00 C 49.33 28.00 46.67 28.00 44.00 28.00 M 44.00 44.00 C 44.00 52.00 44.00 60.00 44.00 68.00 C 46.67 68.00 49.33 68.00 52.00 68.00 C 52.00 60.00 52.00 52.00 52.00 44.00 C 49.33 44.00 46.67 44.00 44.00 44.00 Z" />
</g>
</svg>
