<?xml version="1.0" encoding="UTF-8" ?>
<!DOCTYPE svg PUBLIC "-//W3C//DTD SVG 1.1//EN" "http://www.w3.org/Graphics/SVG/1.1/DTD/svg11.dtd">
<svg width="96pt" height="96pt" viewBox="0 0 96 96" version="1.1" xmlns="http://www.w3.org/2000/svg">
<g id="#000000ff">
<path fill="#000000" opacity="1.00" d=" M 40.54 3.16 C 45.85 2.93 51.17 2.91 56.48 3.18 C 57.17 6.85 57.51 10.56 57.67 14.28 C 58.85 14.75 60.04 15.22 61.23 15.68 C 65.15 17.50 68.92 19.71 72.06 22.72 C 76.17 21.95 79.91 19.95 83.99 19.07 C 86.47 23.50 89.04 27.87 91.73 32.18 C 88.66 34.66 85.46 36.97 82.35 39.40 C 83.65 45.02 83.70 50.85 82.34 56.46 C 85.54 58.84 88.75 61.24 91.78 63.84 C 88.90 68.03 86.46 72.51 83.94 76.93 C 80.11 76.17 76.72 73.86 72.87 73.33 C 68.94 75.59 65.43 78.57 61.20 80.33 C 60.02 80.79 58.84 81.25 57.67 81.72 C 57.51 85.44 57.16 89.16 56.49 92.82 C 51.18 93.09 45.86 93.07 40.54 92.86 C 39.83 89.21 39.48 85.50 39.33 81.79 C 33.79 79.88 29.03 76.48 24.15 73.35 C 20.28 73.82 16.89 76.18 13.04 76.94 C 10.58 72.49 8.03 68.09 5.25 63.83 C 8.26 61.23 11.44 58.84 14.64 56.48 C 13.32 50.86 13.31 45.03 14.64 39.41 C 11.53 36.96 8.33 34.64 5.25 32.17 C 7.95 27.87 10.51 23.48 13.03 19.07 C 17.10 19.96 20.83 21.95 24.93 22.72 C 28.95 18.72 34.16 16.34 39.33 14.21 C 39.48 10.50 39.82 6.80 40.54 3.16 M 35.60 42.80 C 31.34 51.53 39.50 62.71 49.05 61.74 C 55.42 61.91 60.27 56.71 62.42 51.15 C 62.41 49.05 62.41 46.94 62.42 44.84 C 60.71 41.35 58.80 37.59 55.09 35.86 C 48.20 31.87 38.43 35.34 35.60 42.80 Z" />
</g>
</svg>
