<?xml version="1.0" encoding="UTF-8" ?>
<!DOCTYPE svg PUBLIC "-//W3C//DTD SVG 1.1//EN" "http://www.w3.org/Graphics/SVG/1.1/DTD/svg11.dtd">
<svg width="600pt" height="600pt" viewBox="0 0 600 600" version="1.1" xmlns="http://www.w3.org/2000/svg">
<g id="#ffffffff">
</g>
<g id="#000000ff">
<path fill="#000000" opacity="1.00" d=" M 410.35 53.91 C 412.87 52.19 416.12 53.19 418.97 53.05 C 420.39 52.99 420.74 54.56 421.36 55.52 C 421.92 57.57 422.67 59.58 423.76 61.42 C 424.48 63.04 425.06 64.72 425.72 66.37 C 426.33 67.70 426.94 69.04 427.28 70.48 C 427.80 71.84 428.23 73.24 428.82 74.58 C 428.91 75.04 429.10 75.95 429.20 76.41 C 429.61 77.40 429.98 78.42 430.31 79.45 C 430.80 80.80 431.19 82.19 431.70 83.55 C 432.01 84.58 432.38 85.59 432.79 86.59 C 432.90 87.04 433.11 87.95 433.22 88.40 C 433.93 90.07 434.05 91.92 434.79 93.59 C 434.89 94.04 435.09 94.96 435.20 95.41 C 435.61 96.41 436.00 97.42 436.35 98.44 C 436.87 100.13 437.12 101.88 437.65 103.56 C 437.99 104.58 438.38 105.59 438.80 106.58 C 438.91 107.04 439.11 107.95 439.22 108.40 C 439.91 110.05 440.12 111.85 440.67 113.55 C 440.98 114.56 441.33 115.55 441.71 116.54 C 442.00 117.55 442.32 118.56 442.67 119.55 C 443.00 120.58 443.38 121.59 443.80 122.59 C 443.90 123.04 444.11 123.95 444.22 124.40 C 444.90 126.06 445.12 127.85 445.67 129.55 C 445.98 130.56 446.32 131.55 446.70 132.54 C 447.00 133.55 447.33 134.56 447.69 135.55 C 447.99 136.56 448.33 137.56 448.70 138.54 C 448.99 139.56 449.32 140.56 449.67 141.56 C 450.00 142.58 450.38 143.59 450.80 144.59 C 450.90 145.04 451.10 145.95 451.20 146.41 C 451.61 147.41 451.97 148.43 452.29 149.47 C 452.81 150.83 453.23 152.23 453.81 153.58 C 453.91 154.04 454.11 154.95 454.21 155.41 C 454.92 157.05 455.12 158.85 455.67 160.55 C 455.98 161.56 456.32 162.56 456.70 163.55 C 457.00 164.55 457.33 165.55 457.70 166.55 C 457.99 167.55 458.32 168.56 458.68 169.55 C 459.00 170.58 459.38 171.59 459.80 172.58 C 459.90 173.04 460.11 173.94 460.22 174.40 C 460.90 176.08 461.08 177.91 461.77 179.60 C 461.89 180.05 462.11 180.95 462.22 181.41 C 462.94 183.09 463.03 184.97 463.83 186.63 C 463.93 187.54 464.04 188.45 464.16 189.37 C 464.94 190.57 464.98 192.02 465.26 193.39 C 465.86 194.65 466.00 196.04 466.25 197.40 C 467.16 198.91 466.97 200.69 467.16 202.38 C 468.18 203.73 467.97 205.42 468.11 207.00 C 456.41 207.04 444.71 206.92 433.01 207.05 C 432.60 207.27 431.77 207.71 431.35 207.92 C 332.82 208.09 234.29 207.98 135.76 207.98 C 135.93 206.73 136.27 205.53 136.80 204.40 C 136.89 203.94 137.09 203.04 137.19 202.59 C 137.62 201.59 138.00 200.58 138.35 199.56 C 138.87 197.85 139.07 196.05 139.78 194.41 C 139.89 193.95 140.10 193.05 140.20 192.59 C 140.61 191.59 140.99 190.58 141.32 189.55 C 141.68 188.55 142.00 187.55 142.31 186.54 C 142.66 185.55 142.98 184.55 143.27 183.54 C 143.80 182.17 144.23 180.76 144.82 179.42 C 144.91 178.96 145.10 178.04 145.19 177.58 C 145.61 176.59 145.99 175.58 146.33 174.55 C 146.68 173.56 147.00 172.55 147.30 171.54 C 147.66 170.55 148.00 169.55 148.30 168.54 C 148.67 167.55 149.00 166.55 149.31 165.55 C 149.66 164.55 149.99 163.54 150.27 162.53 C 150.78 161.24 151.18 159.92 151.71 158.65 C 152.32 157.30 152.93 155.95 153.32 154.53 C 153.67 153.54 154.00 152.54 154.30 151.54 C 154.66 150.55 155.00 149.55 155.30 148.55 C 155.67 147.55 156.00 146.55 156.30 145.54 C 156.67 144.55 157.00 143.55 157.31 142.55 C 157.66 141.55 157.99 140.55 158.28 139.54 C 158.80 138.19 159.20 136.80 159.72 135.46 C 160.01 134.44 160.32 133.44 160.67 132.45 C 161.00 131.42 161.38 130.41 161.80 129.41 C 161.90 128.95 162.10 128.04 162.20 127.59 C 162.61 126.59 162.99 125.58 163.33 124.55 C 163.68 123.56 164.00 122.56 164.30 121.55 C 164.66 120.55 165.00 119.55 165.31 118.54 C 165.66 117.55 165.98 116.55 166.27 115.54 C 166.80 114.17 167.23 112.77 167.81 111.43 C 167.91 110.97 168.10 110.04 168.19 109.58 C 168.61 108.59 168.99 107.58 169.33 106.56 C 169.67 105.56 170.00 104.55 170.30 103.54 C 170.66 102.55 171.00 101.56 171.32 100.55 C 171.66 99.55 171.98 98.55 172.27 97.54 C 172.80 96.17 173.23 94.76 173.82 93.42 C 173.91 92.96 174.08 92.03 174.17 91.57 C 174.77 90.21 175.23 88.79 175.83 87.43 C 175.92 86.97 176.10 86.05 176.19 85.59 C 176.61 84.59 176.99 83.58 177.33 82.55 C 177.68 81.55 177.99 80.55 178.27 79.53 C 178.89 77.79 179.51 76.05 180.28 74.36 C 180.93 72.69 181.54 71.00 182.28 69.36 C 183.13 66.98 184.08 64.64 185.28 62.42 C 186.05 60.94 186.76 59.44 187.37 57.88 C 188.83 58.01 190.38 57.90 191.63 58.85 C 192.54 58.95 193.45 59.05 194.37 59.15 C 195.57 59.95 197.02 59.99 198.39 60.26 C 199.65 60.87 201.04 61.01 202.39 61.26 C 203.65 61.87 205.04 62.01 206.40 62.26 C 207.65 62.88 209.04 63.01 210.40 63.25 C 211.91 64.14 213.69 63.99 215.37 64.18 C 217.04 64.93 218.89 65.10 220.60 65.74 C 221.97 66.00 223.41 66.06 224.63 66.84 C 226.32 67.04 228.19 66.75 229.64 67.88 C 230.88 67.96 232.12 68.03 233.37 68.12 C 235.21 69.53 237.75 68.50 239.63 69.84 C 241.32 70.04 243.20 69.75 244.65 70.88 C 246.66 71.12 248.93 70.52 250.65 71.91 C 252.98 72.21 255.65 71.35 257.66 72.92 C 260.30 73.29 263.33 72.21 265.64 73.92 C 268.88 74.05 272.12 74.04 275.36 73.92 C 278.04 71.71 281.95 74.28 284.64 72.09 C 286.97 71.80 289.63 72.64 291.65 71.09 C 293.55 71.01 295.45 70.99 297.36 70.91 C 299.36 69.35 302.02 70.21 304.35 69.91 C 306.75 67.91 310.22 70.07 312.65 68.11 C 314.66 67.88 316.93 68.47 318.65 67.09 C 320.55 67.01 322.45 66.99 324.35 66.91 C 326.75 64.90 330.23 67.08 332.64 65.11 C 334.66 64.88 336.93 65.48 338.65 64.09 C 340.98 63.80 343.61 64.62 345.65 63.11 C 347.65 62.87 349.93 63.49 351.65 62.09 C 353.54 62.01 355.44 61.99 357.35 61.91 C 359.44 60.11 362.55 61.89 364.65 60.08 C 366.97 59.80 369.62 60.64 371.64 59.10 C 373.20 59.02 374.78 58.98 376.35 58.90 C 378.76 56.92 382.24 59.09 384.65 57.09 C 386.55 57.01 388.45 56.99 390.35 56.91 C 392.07 55.52 394.34 56.12 396.35 55.89 C 398.77 53.93 402.24 56.08 404.65 54.09 C 406.55 54.01 408.45 53.99 410.35 53.91 Z" />
<path fill="#000000" opacity="1.00" d=" M 271.81 259.15 C 288.53 258.79 305.27 259.13 321.99 258.97 C 324.60 259.04 327.35 258.66 329.78 259.85 C 336.24 260.25 342.72 259.76 349.19 260.14 C 354.14 262.31 359.87 259.68 364.82 261.86 C 368.80 262.32 373.03 261.24 376.82 262.86 C 380.13 263.17 383.65 262.46 386.79 263.84 C 389.80 264.10 392.97 263.59 395.82 264.82 C 398.47 265.05 401.27 264.70 403.78 265.82 C 405.92 265.96 408.06 266.03 410.21 266.18 C 412.43 267.15 414.89 266.99 417.25 267.24 C 419.70 267.99 422.30 268.00 424.75 268.78 C 426.57 268.94 428.40 269.05 430.23 269.21 C 432.67 270.00 435.28 270.02 437.74 270.73 C 438.91 270.91 440.08 271.08 441.26 271.27 C 443.71 271.98 446.30 272.01 448.76 272.75 C 449.91 272.91 451.08 273.06 452.25 273.23 C 454.37 273.87 456.58 274.13 458.73 274.71 C 460.38 274.97 462.05 275.23 463.68 275.66 C 465.36 275.96 467.06 276.24 468.72 276.72 C 469.56 276.90 470.41 277.08 471.27 277.26 C 473.38 277.86 475.57 278.13 477.69 278.73 C 478.57 278.91 479.46 279.09 480.36 279.28 C 482.46 279.87 484.63 280.14 486.73 280.75 C 487.58 280.91 488.43 281.08 489.30 281.25 C 490.62 281.65 491.97 281.99 493.33 282.31 C 495.10 282.81 496.90 283.18 498.68 283.70 C 500.00 284.00 501.31 284.31 502.62 284.70 C 503.07 284.85 503.96 285.16 504.41 285.31 C 505.68 285.68 506.99 285.99 508.29 286.29 C 510.05 286.80 511.85 287.18 513.60 287.73 C 514.05 287.86 514.93 288.12 515.37 288.26 C 517.11 288.80 518.88 289.19 520.62 289.75 C 521.06 289.88 521.94 290.14 522.38 290.27 C 524.09 290.80 525.85 291.17 527.59 291.66 C 528.59 292.02 529.60 292.39 530.60 292.79 C 531.04 292.91 531.92 293.14 532.36 293.26 C 534.07 293.79 535.82 294.17 537.54 294.67 C 538.51 294.98 539.48 295.32 540.45 295.66 C 541.48 295.98 542.51 296.32 543.54 296.67 C 544.55 297.02 545.57 297.39 546.58 297.78 C 547.04 297.89 547.95 298.11 548.40 298.21 C 549.39 298.60 550.40 298.97 551.42 299.32 C 552.41 299.66 553.41 299.99 554.42 300.31 C 555.41 300.63 556.40 300.95 557.41 301.25 C 558.79 301.78 560.20 302.26 561.59 302.83 C 562.07 302.89 563.04 303.02 563.52 303.09 C 564.49 303.69 565.48 304.29 566.46 304.90 C 566.96 304.98 567.95 305.13 568.44 305.20 C 569.42 305.58 570.41 305.95 571.42 306.30 C 573.07 307.06 574.77 307.75 576.52 308.29 C 577.51 308.77 578.51 309.25 579.52 309.73 C 580.87 310.16 582.19 310.66 583.52 311.19 C 586.72 312.92 590.28 313.87 593.43 315.73 C 594.77 316.38 596.13 317.03 597.50 317.66 C 598.33 318.21 599.17 318.77 600.00 319.36 L 600.00 321.46 C 599.35 321.84 598.04 322.59 597.39 322.97 C 411.93 323.04 226.47 322.98 41.00 323.00 C 32.60 322.91 24.18 323.19 15.78 322.85 C 10.75 321.06 5.23 322.39 0.00 322.01 L 0.00 321.19 C 2.51 319.87 5.21 318.96 7.75 317.69 C 8.63 317.21 9.52 316.73 10.40 316.26 C 10.90 316.03 11.91 315.57 12.42 315.34 C 14.17 314.83 15.85 314.11 17.44 313.23 C 19.08 312.53 20.75 311.93 22.43 311.36 C 22.95 311.04 23.98 310.39 24.50 310.07 C 24.99 310.04 25.98 309.98 26.48 309.95 C 27.50 309.31 28.52 308.67 29.54 308.03 C 30.02 308.02 30.99 307.98 31.47 307.96 C 32.49 307.32 33.51 306.68 34.53 306.04 C 35.02 306.02 36.01 305.97 36.50 305.95 C 37.02 305.60 38.07 304.91 38.60 304.57 C 39.54 304.27 40.48 303.98 41.43 303.71 C 42.44 303.36 43.44 303.03 44.45 302.72 C 46.44 301.75 48.50 300.98 50.58 300.26 C 51.59 299.94 52.59 299.59 53.59 299.23 C 54.04 299.12 54.96 298.90 55.41 298.79 C 56.80 298.25 58.22 297.78 59.62 297.26 C 60.62 296.93 61.61 296.58 62.60 296.22 C 63.04 296.12 63.94 295.90 64.38 295.79 C 65.39 295.40 66.41 295.02 67.44 294.67 C 68.44 294.33 69.45 294.01 70.46 293.70 C 71.44 293.34 72.43 292.99 73.42 292.66 C 75.15 292.17 76.91 291.81 78.65 291.34 C 79.64 290.97 80.62 290.60 81.60 290.21 C 82.05 290.09 82.94 289.86 83.39 289.75 C 85.11 289.20 86.88 288.80 88.60 288.26 C 89.05 288.12 89.96 287.84 90.41 287.69 C 91.70 287.31 93.01 287.00 94.32 286.70 C 96.06 286.19 97.82 285.82 99.55 285.30 C 100.02 285.14 100.94 284.84 101.40 284.69 C 102.69 284.31 104.00 284.01 105.31 283.71 C 107.11 283.18 108.94 282.79 110.73 282.22 C 111.58 282.06 112.42 281.90 113.27 281.74 C 115.38 281.13 117.57 280.86 119.70 280.34 C 121.04 280.00 122.38 279.65 123.70 279.24 C 124.55 279.07 125.41 278.91 126.26 278.75 C 128.39 278.13 130.59 277.86 132.73 277.29 C 134.39 277.02 136.06 276.77 137.70 276.35 C 139.03 276.01 140.37 275.68 141.70 275.28 C 143.39 275.02 145.10 274.76 146.76 274.27 C 148.76 274.04 150.80 273.92 152.73 273.26 C 153.91 273.08 155.09 272.91 156.27 272.74 C 158.19 272.07 160.24 271.96 162.25 271.72 C 164.18 271.10 166.21 270.95 168.22 270.72 C 170.70 270.03 173.30 269.97 175.77 269.27 C 177.78 269.03 179.85 268.95 181.76 268.20 C 183.58 268.05 185.40 267.94 187.23 267.80 C 189.75 266.72 192.54 267.05 195.21 266.81 C 197.41 265.86 199.85 266.00 202.19 265.78 C 205.05 264.62 208.19 265.09 211.19 264.85 C 214.01 263.54 217.18 264.12 220.18 263.85 C 223.84 262.06 228.15 263.94 231.81 262.15 C 234.95 261.97 238.09 262.03 241.22 261.85 C 245.00 260.23 249.22 261.33 253.20 260.86 C 259.13 258.54 265.86 261.45 271.81 259.15 Z" />
<path fill="#000000" opacity="1.00" d=" M 172.35 358.92 C 172.78 358.70 173.63 358.27 174.06 358.05 C 179.36 357.94 184.67 357.95 189.96 358.05 C 190.38 358.27 191.23 358.70 191.65 358.92 C 193.88 359.00 196.12 358.99 198.35 359.09 C 200.17 360.49 202.66 359.61 204.60 360.74 C 205.93 360.98 207.28 361.19 208.57 361.63 C 209.59 361.99 210.59 362.38 211.59 362.82 C 212.05 362.91 212.97 363.08 213.43 363.17 C 214.71 363.73 216.06 364.17 217.36 364.73 C 218.99 365.46 220.69 366.07 222.38 366.69 C 223.46 367.20 224.54 367.74 225.64 368.24 C 227.33 369.15 228.88 370.32 230.56 371.28 C 235.50 373.81 239.63 377.60 243.97 380.98 C 247.08 382.89 249.26 385.86 251.31 388.79 C 256.78 393.87 260.51 400.44 264.70 406.55 C 266.26 409.04 268.16 411.34 269.43 414.01 C 270.74 413.99 272.05 413.96 273.36 413.92 C 274.63 412.71 276.37 413.02 277.95 412.97 C 295.45 413.12 312.98 412.81 330.48 413.13 L 331.55 414.10 C 333.44 412.11 334.91 409.80 336.28 407.44 C 340.49 399.89 346.47 393.54 351.72 386.76 C 357.86 380.40 364.87 374.87 372.40 370.23 C 372.91 369.99 373.94 369.53 374.45 369.29 C 374.94 369.04 375.91 368.53 376.40 368.28 C 377.46 367.76 378.51 367.22 379.58 366.71 C 381.42 365.71 383.39 364.99 385.36 364.28 C 386.70 363.67 388.04 363.06 389.47 362.68 C 390.45 362.32 391.45 361.98 392.45 361.67 C 394.16 361.11 395.98 360.92 397.64 360.18 C 399.33 359.94 401.22 360.25 402.66 359.09 C 404.98 358.79 407.65 359.65 409.65 358.08 C 415.89 357.95 422.12 357.95 428.36 358.07 C 430.34 359.67 433.02 358.78 435.35 359.09 C 437.17 360.49 439.66 359.59 441.60 360.74 C 442.95 361.00 444.38 361.08 445.61 361.80 C 446.06 361.90 446.96 362.10 447.41 362.20 C 448.40 362.61 449.41 362.99 450.44 363.33 C 451.44 363.67 452.45 363.99 453.47 364.27 C 455.19 364.90 456.92 365.50 458.62 366.20 C 459.53 366.72 460.46 367.25 461.39 367.77 C 462.47 368.24 463.54 368.75 464.63 369.22 C 481.07 378.68 494.98 392.52 503.73 409.41 C 504.23 410.47 504.78 411.53 505.32 412.61 C 505.92 414.30 506.53 416.00 507.28 417.65 C 507.82 418.94 508.25 420.28 508.82 421.57 C 508.92 422.03 509.12 422.94 509.21 423.40 C 509.96 425.08 510.00 426.99 510.86 428.64 C 510.95 429.87 511.02 431.11 511.12 432.36 C 512.85 434.48 511.12 437.56 512.93 439.65 C 513.10 446.45 512.93 453.24 513.03 460.04 C 512.98 461.61 513.25 463.34 512.10 464.64 C 512.02 466.21 511.97 467.78 511.89 469.36 C 510.53 471.19 511.38 473.66 510.26 475.61 C 509.99 476.95 509.91 478.38 509.21 479.61 C 509.10 480.06 508.90 480.96 508.80 481.41 C 508.38 482.40 508.01 483.42 507.71 484.46 C 507.21 485.75 506.81 487.08 506.29 488.37 C 505.34 490.40 504.63 492.53 503.78 494.61 C 502.60 497.03 501.16 499.29 499.72 501.56 C 497.25 505.97 494.47 510.27 490.82 513.81 C 488.06 519.01 482.48 521.41 478.75 525.72 C 475.39 528.10 472.29 530.91 468.56 532.72 C 466.88 533.68 465.32 534.84 463.62 535.76 C 461.85 536.54 460.13 537.43 458.41 538.31 C 457.16 538.79 455.88 539.19 454.65 539.70 C 452.94 540.48 451.17 541.11 449.43 541.82 C 448.98 541.92 448.06 542.12 447.60 542.21 C 445.92 542.91 444.10 543.12 442.40 543.74 C 441.02 543.99 439.58 544.06 438.37 544.83 C 436.66 545.05 434.76 544.71 433.34 545.92 C 430.69 546.29 427.65 545.20 425.35 546.92 C 421.12 547.05 416.88 547.05 412.65 546.92 C 409.95 544.75 406.09 547.22 403.37 545.12 C 402.12 545.02 400.87 544.95 399.64 544.86 C 397.99 543.99 396.08 543.97 394.40 543.21 C 393.95 543.11 393.03 542.92 392.57 542.82 C 391.28 542.25 389.94 541.82 388.65 541.27 C 386.30 540.23 383.80 539.55 381.58 538.24 C 379.06 537.32 376.61 536.30 374.45 534.68 C 373.48 534.22 372.50 533.77 371.53 533.32 C 365.14 529.25 358.81 524.97 353.76 519.26 C 346.92 512.98 340.97 505.69 336.72 497.42 C 335.71 495.42 334.71 493.43 333.70 491.44 C 332.68 489.53 331.94 487.51 331.30 485.46 C 330.98 484.42 330.61 483.40 330.20 482.41 C 330.10 481.96 329.90 481.06 329.80 480.61 C 328.58 478.70 329.45 476.23 328.15 474.37 C 328.05 473.45 327.95 472.53 327.85 471.63 C 326.17 469.49 327.85 466.44 326.09 464.35 C 326.01 462.45 325.98 460.54 325.91 458.65 C 323.90 456.24 326.11 452.74 324.08 450.35 C 323.98 447.91 323.99 445.47 324.00 443.04 C 322.88 443.00 321.76 442.95 320.64 442.91 C 317.94 440.73 314.03 443.28 311.35 441.07 C 304.92 440.96 298.48 440.94 292.05 441.05 C 291.63 441.27 290.78 441.69 290.35 441.91 C 288.45 441.98 286.55 442.01 284.65 442.10 C 282.87 443.48 280.50 442.63 278.55 443.53 C 277.79 445.03 278.05 446.75 277.84 448.38 C 276.19 450.52 277.83 453.54 276.10 455.64 C 276.02 457.21 275.97 458.78 275.90 460.36 C 274.51 462.07 275.12 464.34 274.89 466.36 C 273.47 468.19 274.50 470.75 273.17 472.63 C 272.97 474.30 273.16 476.09 272.25 477.60 C 271.99 478.95 271.93 480.38 271.20 481.60 C 271.10 482.06 270.91 482.97 270.81 483.43 C 270.23 484.76 269.80 486.15 269.28 487.52 C 268.92 488.93 268.34 490.26 267.78 491.61 C 267.05 492.90 266.37 494.23 265.71 495.58 C 264.89 497.19 264.09 498.82 263.32 500.46 C 260.54 504.88 257.56 509.17 254.28 513.23 C 250.76 516.71 247.31 520.26 243.76 523.70 C 238.19 527.84 232.60 532.09 226.43 535.29 C 224.14 536.43 221.84 537.53 219.61 538.77 C 217.92 539.50 216.19 540.10 214.47 540.73 C 213.45 541.00 212.44 541.32 211.45 541.67 C 210.42 542.00 209.40 542.38 208.41 542.80 C 207.96 542.90 207.05 543.10 206.60 543.20 C 205.38 543.91 203.96 543.99 202.61 544.26 C 200.66 545.38 198.18 544.52 196.35 545.91 C 194.45 545.98 192.54 546.01 190.65 546.09 C 186.38 548.09 181.25 546.55 176.64 546.93 C 173.66 544.63 169.43 547.31 166.38 545.16 C 164.69 544.99 162.92 545.12 161.39 544.26 C 160.06 544.01 158.72 543.80 157.43 543.37 C 156.41 543.00 155.40 542.61 154.41 542.19 C 153.95 542.09 153.04 541.90 152.58 541.80 C 151.59 541.38 150.57 541.01 149.54 540.70 C 146.75 539.87 144.10 538.66 141.55 537.27 C 141.07 537.02 140.10 536.52 139.61 536.27 C 138.53 535.76 137.45 535.24 136.36 534.77 C 122.09 526.45 109.35 515.10 101.28 500.55 C 100.49 499.14 99.51 497.84 98.70 496.45 C 98.22 495.49 97.72 494.54 97.22 493.61 C 96.36 491.52 95.65 489.38 94.68 487.35 C 94.32 486.42 93.99 485.48 93.69 484.54 C 93.32 483.55 92.98 482.56 92.66 481.56 C 92.19 480.28 91.98 478.93 91.73 477.60 C 91.08 475.88 90.99 473.99 90.13 472.35 C 89.87 470.34 90.49 468.06 89.08 466.35 C 88.94 456.45 88.95 446.55 89.07 436.65 C 90.84 434.57 89.23 431.57 90.80 429.40 C 90.91 428.95 91.11 428.05 91.22 427.60 C 91.91 425.94 92.13 424.14 92.66 422.44 C 92.97 421.50 93.31 420.57 93.69 419.66 C 94.91 416.92 95.82 414.05 97.26 411.41 C 97.75 410.45 98.22 409.50 98.69 408.55 C 99.70 406.88 100.88 405.33 101.72 403.57 C 110.07 389.39 122.51 378.09 136.54 369.68 C 138.57 368.72 140.57 367.70 142.59 366.73 C 143.08 366.47 144.05 365.95 144.54 365.68 C 146.26 365.09 147.98 364.48 149.64 363.73 C 150.94 363.17 152.28 362.74 153.57 362.18 C 154.03 362.08 154.94 361.90 155.40 361.80 C 156.61 361.06 158.04 361.00 159.39 360.74 C 161.33 359.60 163.83 360.49 165.65 359.09 C 167.88 358.99 170.11 359.00 172.35 358.92 M 177.65 385.08 C 175.94 386.49 173.66 385.87 171.65 386.11 C 169.81 387.40 167.41 386.73 165.44 387.65 C 164.44 387.97 163.45 388.33 162.47 388.70 C 161.45 389.00 160.44 389.33 159.45 389.69 C 158.49 389.98 157.54 390.30 156.60 390.65 C 153.76 391.99 151.04 393.55 148.43 395.29 C 142.90 398.20 138.60 402.85 134.24 407.24 C 131.25 409.92 128.96 413.25 126.70 416.53 C 125.37 419.24 123.46 421.61 122.22 424.39 C 121.36 426.47 120.64 428.61 119.69 430.65 C 119.32 431.56 118.97 432.49 118.64 433.43 C 118.19 434.71 117.98 436.06 117.74 437.39 C 116.61 439.34 117.50 441.83 116.08 443.65 C 115.95 449.21 115.95 454.78 116.08 460.35 C 117.28 461.77 116.95 463.66 117.16 465.37 C 118.34 467.24 117.76 469.58 118.65 471.56 C 118.98 472.56 119.33 473.55 119.70 474.54 C 120.00 475.55 120.33 476.55 120.70 477.55 C 120.99 478.51 121.31 479.47 121.65 480.43 C 121.91 480.94 122.43 481.96 122.68 482.47 C 123.71 484.12 124.91 485.66 125.70 487.46 C 128.07 490.96 130.57 494.43 133.75 497.25 C 137.54 501.23 141.58 505.10 146.44 507.72 C 147.85 508.50 149.15 509.48 150.54 510.31 C 151.50 510.77 152.45 511.24 153.41 511.72 C 154.49 512.24 155.56 512.80 156.63 513.36 C 157.57 513.70 158.51 514.01 159.46 514.30 C 160.45 514.66 161.44 514.99 162.46 515.30 C 163.44 515.66 164.44 516.01 165.44 516.34 C 167.41 517.28 169.82 516.57 171.64 517.90 C 173.21 517.97 174.78 518.02 176.35 518.10 C 180.31 520.04 185.07 518.59 189.35 518.92 C 191.06 517.51 193.34 518.12 195.35 517.87 C 196.97 517.02 198.83 516.90 200.55 516.33 C 201.56 516.01 202.55 515.67 203.54 515.31 C 204.48 515.00 205.42 514.67 206.34 514.32 C 207.98 513.52 209.69 512.91 211.42 512.33 C 216.13 510.02 220.27 506.74 224.50 503.68 C 231.10 498.50 235.86 491.48 240.32 484.46 C 240.78 483.48 241.24 482.50 241.72 481.54 C 241.98 481.06 242.51 480.11 242.77 479.63 C 243.46 477.97 244.05 476.29 244.72 474.63 C 245.58 473.06 246.10 471.37 246.26 469.59 C 246.92 467.88 247.02 465.99 247.87 464.35 C 248.13 462.34 247.51 460.06 248.92 458.35 C 249.05 454.45 249.04 450.55 248.92 446.65 C 247.20 444.56 248.70 441.60 247.25 439.39 C 247.00 438.03 246.94 436.61 246.20 435.41 C 246.10 434.95 245.91 434.04 245.82 433.58 C 245.23 432.24 244.80 430.84 244.28 429.48 C 243.92 428.05 243.34 426.70 242.77 425.36 C 242.51 424.88 241.98 423.93 241.72 423.45 C 240.90 421.82 240.10 420.19 239.32 418.55 C 233.42 408.83 225.16 400.62 215.47 394.67 C 214.96 394.44 213.95 393.97 213.44 393.74 C 212.94 393.49 211.94 392.98 211.44 392.73 C 209.42 391.71 207.40 390.69 205.39 389.64 C 204.45 389.30 203.49 388.99 202.54 388.71 C 201.55 388.33 200.56 387.98 199.56 387.66 C 198.29 387.17 196.93 386.98 195.60 386.74 C 193.79 385.67 191.64 386.06 189.64 385.89 C 186.01 383.99 181.60 385.37 177.65 385.08 M 413.36 385.90 C 411.78 385.97 410.21 386.02 408.65 386.12 C 407.00 386.99 405.11 387.08 403.40 387.73 C 402.06 387.98 400.71 388.19 399.44 388.65 C 398.48 388.96 397.54 389.30 396.61 389.67 C 393.63 391.40 390.21 392.16 387.44 394.27 C 377.02 400.19 368.20 409.02 362.27 419.44 C 361.06 421.31 359.87 423.20 359.31 425.39 C 358.30 427.36 357.22 429.31 356.69 431.47 C 356.32 432.45 355.98 433.44 355.66 434.44 C 354.70 436.41 355.45 438.84 354.08 440.65 C 353.71 443.29 354.78 446.33 353.08 448.65 C 352.95 451.88 352.95 455.12 353.08 458.36 C 355.02 460.74 353.08 464.09 354.75 466.60 C 354.98 467.93 355.16 469.28 355.66 470.56 C 355.98 471.55 356.32 472.54 356.69 473.52 C 357.09 474.92 357.64 476.26 358.20 477.62 C 358.72 478.53 359.24 479.46 359.76 480.39 C 360.24 481.46 360.76 482.52 361.26 483.60 C 361.74 484.54 362.22 485.49 362.70 486.46 C 364.21 489.14 366.06 491.60 368.17 493.84 C 373.47 501.62 381.52 506.85 389.34 511.81 C 391.01 512.45 392.70 513.04 394.36 513.72 C 395.70 514.32 397.04 514.93 398.48 515.31 C 399.45 515.67 400.44 516.01 401.45 516.34 C 403.41 517.30 405.84 516.55 407.65 517.92 C 415.88 518.04 424.12 518.07 432.35 517.91 C 433.94 516.98 435.83 516.92 437.55 516.33 C 438.54 516.01 439.53 515.67 440.52 515.32 C 441.95 514.93 443.29 514.32 444.64 513.70 C 445.89 513.18 447.19 512.81 448.47 512.35 C 449.84 511.49 451.13 510.50 452.56 509.71 C 463.58 503.79 471.96 494.08 478.32 483.46 C 478.96 482.09 479.64 480.75 480.31 479.40 C 480.92 477.69 481.53 475.97 482.31 474.33 C 482.68 473.41 483.03 472.49 483.34 471.55 C 483.90 469.83 484.01 467.98 484.86 466.37 C 484.95 465.11 485.02 463.87 485.12 462.64 C 486.90 459.76 485.64 456.15 486.00 452.96 C 485.69 450.11 486.84 446.86 485.09 444.35 C 484.85 442.03 485.49 439.51 484.25 437.40 C 484.00 436.06 483.83 434.71 483.34 433.44 C 483.01 432.44 482.67 431.45 482.31 430.48 C 481.91 429.06 481.33 427.71 480.78 426.36 C 480.51 425.89 479.98 424.93 479.71 424.46 C 479.04 423.11 478.37 421.76 477.76 420.39 C 474.23 414.12 469.52 408.63 464.26 403.76 C 461.01 399.91 456.65 397.35 452.43 394.72 C 450.65 393.90 449.11 392.70 447.48 391.64 C 446.20 391.18 444.89 390.82 443.63 390.30 C 442.30 389.67 440.96 389.05 439.53 388.69 C 438.54 388.32 437.55 387.98 436.56 387.66 C 435.28 387.17 433.93 386.98 432.60 386.75 C 430.79 385.66 428.63 386.07 426.65 385.89 C 424.73 384.41 422.22 385.16 420.01 384.97 C 417.79 385.17 415.27 384.39 413.36 385.90 Z" />
</g>
</svg>
