<?xml version="1.0" encoding="UTF-8" ?>
<!DOCTYPE svg PUBLIC "-//W3C//DTD SVG 1.1//EN" "http://www.w3.org/Graphics/SVG/1.1/DTD/svg11.dtd">
<svg width="512pt" height="512pt" viewBox="0 0 512 512" version="1.1" xmlns="http://www.w3.org/2000/svg">
<g id="#0f4079ff">
<path fill="#0f4079" opacity="1.00" d=" M 82.33 53.23 C 83.52 53.09 84.73 53.02 85.93 53.00 C 199.31 53.00 312.70 53.00 426.08 53.00 C 434.46 53.13 442.98 56.04 449.00 62.03 C 455.82 68.34 459.22 77.76 459.05 86.96 C 459.09 199.64 459.04 312.33 459.07 425.01 C 459.24 434.24 455.90 443.70 449.06 450.06 C 442.78 456.34 433.77 459.17 425.01 459.16 C 314.67 459.15 204.34 459.15 94.00 459.16 C 86.32 459.30 78.29 459.30 71.24 455.83 C 62.59 451.70 55.96 443.49 53.93 434.09 C 52.56 428.83 52.97 423.37 52.94 418.00 C 52.94 307.67 52.94 197.34 52.94 87.00 C 52.81 78.03 55.98 68.82 62.52 62.51 C 67.72 57.12 74.93 54.01 82.33 53.23 M 221.89 88.91 C 218.08 91.80 215.53 95.93 212.66 99.68 C 160.13 169.81 107.62 239.96 55.08 310.09 C 53.34 311.98 53.85 314.64 53.77 316.99 C 53.94 340.19 53.57 363.40 53.95 386.60 C 65.51 371.87 76.45 356.66 87.76 341.74 C 113.60 307.26 139.43 272.76 165.26 238.27 C 178.46 220.86 191.25 203.13 204.69 185.91 C 197.99 250.95 191.47 315.98 184.85 381.01 C 183.64 391.79 191.38 402.70 201.99 404.99 C 210.82 407.38 220.80 403.42 225.87 395.87 C 241.19 373.52 256.51 351.17 271.85 328.82 C 285.54 309.09 298.79 289.05 312.76 269.52 C 312.93 294.36 312.75 319.20 312.84 344.04 C 312.76 355.40 322.52 365.86 333.95 366.12 C 353.31 366.18 372.67 366.12 392.04 366.14 C 400.27 366.27 408.21 361.12 411.76 353.74 C 415.22 346.99 414.87 338.52 410.93 332.05 C 406.87 325.19 399.02 320.80 391.05 320.99 C 379.99 321.07 368.94 321.00 357.89 321.03 C 357.90 281.35 357.88 241.68 357.90 202.00 C 357.85 197.73 358.29 193.30 356.75 189.21 C 354.37 181.63 347.65 175.67 339.87 174.16 C 330.29 172.17 320.22 176.95 315.46 185.43 C 292.29 219.26 269.08 253.06 245.90 286.88 C 243.67 290.16 241.49 293.49 238.98 296.56 C 239.01 293.37 239.24 290.19 239.70 287.04 C 245.64 228.62 251.58 170.18 257.52 111.78 C 259.43 102.72 255.17 92.64 247.22 87.84 C 239.60 83.08 229.06 83.44 221.89 88.91 Z" />
</g>
<g id="#fdfdfdff">
<path fill="#fdfdfd" opacity="1.00" d=" M 221.89 88.91 C 229.06 83.44 239.60 83.08 247.22 87.84 C 255.17 92.64 259.43 102.72 257.52 111.78 C 251.58 170.18 245.64 228.62 239.70 287.04 C 239.24 290.19 239.01 293.37 238.98 296.56 C 241.49 293.49 243.67 290.16 245.90 286.88 C 269.08 253.06 292.29 219.26 315.46 185.43 C 320.22 176.95 330.29 172.17 339.87 174.16 C 347.65 175.67 354.37 181.63 356.75 189.21 C 358.29 193.30 357.85 197.73 357.90 202.00 C 357.88 241.68 357.90 281.35 357.89 321.03 C 368.94 321.00 379.99 321.07 391.05 320.99 C 399.02 320.80 406.87 325.19 410.93 332.05 C 414.87 338.52 415.22 346.99 411.76 353.74 C 408.21 361.12 400.27 366.27 392.04 366.14 C 372.67 366.12 353.31 366.18 333.95 366.12 C 322.52 365.86 312.76 355.40 312.84 344.04 C 312.75 319.20 312.93 294.36 312.76 269.52 C 298.79 289.05 285.54 309.09 271.85 328.82 C 256.51 351.17 241.19 373.52 225.87 395.87 C 220.80 403.42 210.82 407.38 201.99 404.99 C 191.38 402.70 183.64 391.79 184.85 381.01 C 191.47 315.98 197.99 250.95 204.69 185.91 C 191.25 203.13 178.46 220.86 165.26 238.27 C 139.43 272.76 113.60 307.26 87.76 341.74 C 76.45 356.66 65.51 371.87 53.95 386.60 C 53.57 363.40 53.94 340.19 53.77 316.99 C 53.85 314.64 53.34 311.98 55.08 310.09 C 107.62 239.96 160.13 169.81 212.66 99.68 C 215.53 95.93 218.08 91.80 221.89 88.91 Z" />
</g>
</svg>
