<?xml version="1.0" encoding="UTF-8" ?>
<!DOCTYPE svg PUBLIC "-//W3C//DTD SVG 1.1//EN" "http://www.w3.org/Graphics/SVG/1.1/DTD/svg11.dtd">
<svg width="324pt" height="324pt" viewBox="0 0 324 324" version="1.1" xmlns="http://www.w3.org/2000/svg">
<g id="#0c0c0cff">
<path fill="#0c0c0c" opacity="1.00" d=" M 154.19 80.56 C 162.92 79.19 171.95 80.34 180.04 83.88 C 179.86 88.98 179.05 94.12 176.75 98.73 C 171.53 109.83 165.26 120.40 158.91 130.88 C 156.10 135.10 153.77 139.71 150.16 143.34 C 150.04 132.84 151.72 122.43 152.43 111.97 C 153.15 101.52 154.69 91.06 154.19 80.56 Z" />
<path fill="#0c0c0c" opacity="1.00" d=" M 130.76 92.76 C 133.05 90.74 135.85 89.04 138.99 89.03 C 141.76 89.45 140.96 92.99 140.68 94.94 C 138.74 103.13 135.04 110.77 131.50 118.37 C 124.50 132.32 117.12 146.22 107.55 158.62 C 105.20 161.36 102.13 164.74 98.12 164.04 C 96.52 163.41 96.53 161.50 96.53 160.07 C 96.92 153.95 101.19 149.21 104.07 144.10 C 102.20 144.60 100.23 145.26 99.17 147.01 C 94.17 153.99 89.10 161.39 87.56 170.01 C 80.31 163.19 76.79 152.78 78.43 142.96 C 80.15 130.94 89.93 120.54 101.92 118.40 C 106.24 117.54 110.64 118.13 114.90 119.03 C 117.29 108.91 122.77 99.47 130.76 92.76 Z" />
<path fill="#0c0c0c" opacity="1.00" d=" M 189.71 91.95 C 198.25 100.07 208.36 106.78 219.71 110.21 C 225.51 111.92 232.13 114.71 234.12 121.01 C 227.43 121.68 220.42 119.78 213.96 122.10 C 211.22 123.35 213.21 126.78 214.77 128.18 C 222.08 134.41 233.57 136.01 241.90 130.86 C 244.74 128.99 246.20 125.79 248.11 123.09 C 249.92 125.95 248.21 129.32 247.22 132.16 C 244.45 139.48 238.47 145.53 231.01 148.03 C 222.73 151.09 213.68 149.43 205.21 151.39 C 204.57 152.97 206.27 153.18 207.38 153.56 C 213.07 155.18 218.98 153.84 224.76 153.73 C 223.77 159.77 217.80 163.79 212.08 164.68 C 204.34 165.80 196.55 166.75 189.01 168.89 C 180.31 171.05 172.17 175.60 163.05 175.90 C 151.08 176.76 139.20 172.14 130.19 164.38 C 123.09 173.78 110.32 178.23 98.96 174.87 C 101.67 172.30 104.47 169.78 106.68 166.74 C 120.98 146.85 131.72 124.72 141.61 102.39 C 140.38 119.96 138.64 137.48 137.51 155.06 C 137.59 157.17 136.87 160.03 139.02 161.38 C 141.65 160.97 143.13 158.46 144.69 156.58 C 157.20 139.41 167.19 120.61 178.44 102.63 C 176.51 119.39 173.93 136.12 173.56 153.02 C 173.64 156.18 173.19 159.97 175.55 162.47 C 177.58 164.25 180.12 162.14 181.72 160.78 C 186.16 156.27 189.74 151.01 193.37 145.85 C 193.11 145.14 192.57 143.72 192.31 143.01 C 190.50 145.54 188.65 148.15 185.87 149.70 C 184.87 147.96 184.46 146.01 184.65 144.02 C 185.07 126.57 187.28 109.22 189.71 91.95 Z" />
<path fill="#0c0c0c" opacity="1.00" d=" M 137.05 196.95 C 136.76 194.39 138.30 191.48 141.06 191.21 C 145.36 190.81 149.69 191.17 154.01 191.04 C 157.52 191.11 161.39 190.55 164.50 192.58 C 167.70 194.55 168.95 198.41 169.50 201.93 C 170.62 210.13 169.99 218.43 170.13 226.68 C 165.88 222.47 161.69 218.20 157.44 213.98 C 157.38 216.51 157.37 219.04 157.38 221.58 C 163.35 227.52 169.32 233.48 175.24 239.49 C 175.28 228.33 175.24 217.16 175.25 206.00 C 175.25 200.68 174.27 194.98 170.44 191.01 C 174.93 191.21 179.44 190.79 183.92 191.21 C 186.66 191.47 188.23 194.36 187.94 196.92 C 187.95 209.96 187.95 223.00 187.95 236.04 C 188.23 238.64 186.60 241.58 183.79 241.82 C 179.53 242.18 175.24 241.82 170.96 241.96 C 167.47 241.90 163.63 242.44 160.55 240.44 C 157.31 238.50 156.09 234.61 155.51 231.10 C 154.37 222.88 155.00 214.57 154.87 206.31 C 159.11 210.54 163.32 214.80 167.55 219.04 C 167.62 216.50 167.63 213.97 167.63 211.44 C 161.66 205.49 155.68 199.56 149.76 193.57 C 149.74 204.72 149.75 215.87 149.74 227.02 C 149.72 232.32 150.75 237.96 154.48 241.98 C 150.01 241.80 145.53 242.20 141.07 241.80 C 138.31 241.49 136.76 238.58 137.05 236.01 C 137.05 222.99 137.05 209.96 137.05 196.95 Z" />
</g>
</svg>
