<?xml version="1.0" encoding="UTF-8" ?>
<!DOCTYPE svg PUBLIC "-//W3C//DTD SVG 1.1//EN" "http://www.w3.org/Graphics/SVG/1.1/DTD/svg11.dtd">
<svg width="96pt" height="96pt" viewBox="0 0 96 96" version="1.1" xmlns="http://www.w3.org/2000/svg">
<g id="#000000ff">
<path fill="#000000" opacity="1.00" d=" M 8.00 13.22 C 9.86 11.29 11.78 9.42 13.76 7.62 C 33.32 26.93 52.44 46.70 72.19 65.83 C 77.24 71.24 82.56 76.39 87.76 81.66 C 85.90 83.52 84.05 85.38 82.19 87.25 C 79.80 84.85 77.39 82.47 75.01 80.07 C 66.01 79.92 57.00 80.04 48.00 80.00 C 48.00 77.33 48.00 74.67 48.00 72.00 C 54.19 71.93 60.39 72.15 66.58 71.85 C 60.27 64.99 53.31 58.77 46.92 51.99 C 33.95 52.02 20.98 51.99 8.00 52.00 C 8.00 49.33 8.00 46.67 8.00 44.00 C 18.30 43.99 28.59 44.01 38.89 43.99 C 32.44 37.00 24.98 31.05 18.59 24.01 C 15.06 23.99 11.53 24.00 8.00 24.00 C 8.00 21.34 8.00 18.68 8.00 16.02 C 8.72 16.01 10.15 15.98 10.87 15.97 C 9.92 15.05 8.96 14.13 8.00 13.22 Z" />
<path fill="#000000" opacity="1.00" d=" M 30.46 12.60 C 34.84 6.94 44.22 6.45 48.89 11.98 C 53.62 16.93 52.61 25.45 47.30 29.58 C 41.68 23.92 36.06 18.28 30.46 12.60 Z" />
<path fill="#000000" opacity="1.00" d=" M 60.00 16.00 C 69.33 16.00 78.67 16.00 88.00 16.00 C 88.00 18.67 88.00 21.33 88.00 24.00 C 78.67 24.00 69.33 24.00 60.00 24.00 C 60.00 21.33 60.00 18.67 60.00 16.00 Z" />
<path fill="#000000" opacity="1.00" d=" M 54.75 37.08 C 59.51 35.18 65.46 35.93 68.89 39.97 C 72.27 43.52 72.63 48.90 70.91 53.32 C 65.46 47.97 60.12 42.51 54.75 37.08 Z" />
<path fill="#000000" opacity="1.00" d=" M 80.00 44.00 C 82.67 44.00 85.33 44.00 88.00 44.00 C 88.00 46.67 88.00 49.33 88.00 52.00 C 85.33 52.00 82.67 52.00 80.00 52.00 C 80.00 49.33 80.00 46.67 80.00 44.00 Z" />
<path fill="#000000" opacity="1.00" d=" M 16.60 71.96 C 18.57 67.03 23.65 63.45 29.05 64.10 C 36.37 64.42 41.82 72.54 39.44 79.45 C 37.63 86.11 29.37 90.05 23.14 86.89 C 20.03 85.69 18.02 82.93 16.63 80.04 C 13.75 80.00 10.88 79.98 8.00 80.00 C 8.00 77.33 8.00 74.67 8.00 72.00 C 10.87 72.02 13.74 72.00 16.60 71.96 Z" />
</g>
</svg>
