<?xml version="1.0" encoding="UTF-8" ?>
<!DOCTYPE svg PUBLIC "-//W3C//DTD SVG 1.1//EN" "http://www.w3.org/Graphics/SVG/1.1/DTD/svg11.dtd">
<svg width="96pt" height="96pt" viewBox="0 0 96 96" version="1.1" xmlns="http://www.w3.org/2000/svg">
<g id="#000000ff">
<path fill="#000000" opacity="1.00" d=" M 19.98 36.01 C 27.99 28.03 35.95 20.00 43.98 12.05 C 44.02 36.03 44.00 60.01 43.99 83.99 C 35.96 76.00 28.00 67.95 19.95 59.99 C 15.43 59.67 9.95 61.25 6.37 57.66 C 2.94 54.36 4.21 49.20 4.00 44.96 C 3.62 41.10 6.18 37.14 10.02 36.28 C 13.31 35.77 16.67 36.05 19.98 36.01 Z" />
<path fill="#000000" opacity="1.00" d=" M 61.01 30.99 C 62.87 29.08 64.75 27.18 66.68 25.35 C 73.00 31.84 76.58 40.97 75.91 50.05 C 75.50 57.78 71.97 65.09 66.65 70.64 C 64.79 68.74 62.90 66.88 61.02 65.00 C 66.06 59.70 68.84 52.21 67.78 44.90 C 67.20 39.64 64.56 34.84 61.01 30.99 Z" />
<path fill="#000000" opacity="1.00" d=" M 55.26 36.67 C 61.47 42.57 61.43 53.31 55.32 59.26 C 53.49 57.42 51.63 55.62 49.80 53.79 C 52.59 50.45 52.63 45.55 49.78 42.24 C 51.60 40.38 53.44 38.54 55.26 36.67 Z" />
</g>
</svg>
