<?xml version="1.0" encoding="UTF-8" ?>
<!DOCTYPE svg PUBLIC "-//W3C//DTD SVG 1.1//EN" "http://www.w3.org/Graphics/SVG/1.1/DTD/svg11.dtd">
<svg width="96pt" height="96pt" viewBox="0 0 96 96" version="1.1" xmlns="http://www.w3.org/2000/svg">
<g id="#000000ff">
<path fill="#000000" opacity="1.00" d=" M 53.45 8.53 C 57.17 6.93 61.94 9.03 62.79 13.10 C 68.01 32.43 73.24 51.76 78.32 71.12 C 79.34 74.66 76.81 78.50 73.26 79.24 C 62.74 81.93 52.30 84.94 41.78 87.65 C 38.21 88.87 33.94 86.63 33.20 82.86 C 27.99 63.54 22.78 44.22 17.68 24.87 C 16.62 21.30 19.21 17.48 22.77 16.75 C 32.94 13.81 43.25 11.37 53.45 8.53 M 25.87 29.78 C 29.87 44.83 33.93 59.85 37.93 74.90 C 48.69 72.06 59.38 68.99 70.16 66.21 C 66.12 51.17 62.11 36.13 58.06 21.10 C 47.33 24.01 36.55 26.73 25.87 29.78 Z" />
<path fill="#000000" opacity="1.00" d=" M 75.27 23.44 C 77.83 22.69 80.42 22.02 83.01 21.39 C 85.89 32.11 88.75 42.83 91.63 53.55 C 89.05 54.19 86.47 54.89 83.92 55.63 C 81.03 44.90 78.16 34.17 75.27 23.44 Z" />
<path fill="#000000" opacity="1.00" d=" M 4.35 42.48 C 6.90 41.69 9.48 40.97 12.09 40.38 C 15.00 51.09 17.84 61.82 20.74 72.53 C 18.15 73.21 15.56 73.85 12.99 74.61 C 10.12 63.90 7.28 53.17 4.35 42.48 Z" />
</g>
</svg>
