<?xml version="1.0" encoding="UTF-8" ?>
<!DOCTYPE svg PUBLIC "-//W3C//DTD SVG 1.1//EN" "http://www.w3.org/Graphics/SVG/1.1/DTD/svg11.dtd">
<svg width="96pt" height="96pt" viewBox="0 0 96 96" version="1.1" xmlns="http://www.w3.org/2000/svg">
<g id="#000000ff">
<path fill="#000000" opacity="1.00" d=" M 8.08 19.87 C 7.96 15.26 12.43 11.51 16.93 12.01 C 37.99 12.02 59.04 11.94 80.10 12.05 C 84.29 11.96 88.06 15.72 87.96 19.92 C 88.03 35.99 88.03 52.06 87.96 68.13 C 88.00 72.31 84.26 76.05 80.07 75.97 C 66.72 76.05 53.37 75.97 40.02 76.00 C 34.66 81.31 29.36 86.67 24.01 91.98 C 23.99 86.65 24.01 81.33 23.99 76.00 C 20.66 75.90 17.28 76.28 13.98 75.72 C 10.58 74.89 7.98 71.61 8.03 68.09 C 7.99 52.02 8.00 35.94 8.08 19.87 M 28.00 40.00 C 28.00 42.67 28.00 45.33 28.01 48.00 C 30.67 48.00 33.33 48.00 35.99 48.00 C 36.00 45.33 36.00 42.67 36.00 40.00 C 33.33 40.00 30.67 40.00 28.00 40.00 M 44.00 40.00 C 44.00 42.67 43.99 45.33 44.00 48.00 C 46.67 48.00 49.33 48.00 52.00 48.00 C 52.00 45.33 52.00 42.67 52.00 40.00 C 49.33 40.00 46.67 39.99 44.00 40.00 M 60.00 40.00 C 59.99 42.67 60.00 45.33 60.00 48.00 C 62.67 48.00 65.33 48.00 68.00 48.00 C 68.00 45.33 68.00 42.67 68.00 40.00 C 65.33 39.99 62.67 40.00 60.00 40.00 Z" />
</g>
</svg>
