<?xml version="1.0" encoding="UTF-8" ?>
<!DOCTYPE svg PUBLIC "-//W3C//DTD SVG 1.1//EN" "http://www.w3.org/Graphics/SVG/1.1/DTD/svg11.dtd">
<svg width="96pt" height="96pt" viewBox="0 0 96 96" version="1.1" xmlns="http://www.w3.org/2000/svg">
<g id="#000000ff">
<path fill="#000000" opacity="1.00" d=" M 12.00 20.94 C 11.61 16.81 14.62 12.52 18.88 12.16 C 25.24 11.74 31.63 12.14 38.00 11.99 C 42.10 12.08 46.60 11.46 50.23 13.80 C 54.08 16.04 56.20 20.54 55.99 24.93 C 56.02 36.84 55.99 48.76 56.00 60.68 C 52.01 56.68 48.02 52.68 44.01 48.69 C 43.99 52.47 44.00 56.25 44.00 60.03 C 50.71 66.65 57.32 73.37 64.00 80.03 C 63.97 61.32 64.06 42.61 63.96 23.91 C 64.01 19.58 62.29 15.53 59.97 11.97 C 65.66 12.15 71.38 11.74 77.06 12.16 C 81.34 12.49 84.38 16.78 84.00 20.93 C 83.97 39.30 84.08 57.69 83.94 76.07 C 84.04 80.27 80.28 84.06 76.07 83.94 C 68.04 84.07 60.01 84.02 51.98 83.96 C 45.61 84.11 39.92 78.44 40.05 72.07 C 39.92 59.82 40.03 47.57 40.01 35.32 C 44.03 39.27 48.00 43.28 51.99 47.26 C 52.01 43.52 51.99 39.79 52.01 36.05 C 45.39 29.33 38.67 22.71 32.01 16.04 C 32.02 34.71 31.94 53.39 32.04 72.06 C 31.97 76.39 33.70 80.44 36.00 84.03 C 30.31 83.85 24.61 84.26 18.93 83.85 C 14.67 83.51 11.62 79.21 12.00 75.07 C 12.00 57.03 12.00 38.98 12.00 20.94 Z" />
</g>
</svg>
