<?xml version="1.0" encoding="UTF-8" ?>
<!DOCTYPE svg PUBLIC "-//W3C//DTD SVG 1.1//EN" "http://www.w3.org/Graphics/SVG/1.1/DTD/svg11.dtd">
<svg width="96pt" height="96pt" viewBox="0 0 96 96" version="1.1" xmlns="http://www.w3.org/2000/svg">
<g id="#000000ff">
<path fill="#000000" opacity="1.00" d=" M 14.34 12.38 C 19.85 11.55 25.50 12.14 31.07 12.02 C 33.44 11.69 36.01 13.35 35.92 15.90 C 35.92 21.83 36.43 27.85 35.61 33.72 C 33.21 37.63 27.75 35.46 23.99 36.00 C 20.23 35.48 14.86 37.59 12.39 33.76 C 11.51 29.24 12.22 24.57 11.97 19.99 C 12.06 17.37 11.39 13.71 14.34 12.38 M 20.00 20.00 C 20.00 22.67 20.00 25.33 20.00 28.00 C 22.67 28.00 25.33 28.00 28.00 28.00 C 28.00 25.33 28.00 22.67 28.00 20.00 C 25.33 20.00 22.67 20.00 20.00 20.00 Z" />
<path fill="#000000" opacity="1.00" d=" M 44.00 12.00 C 46.67 12.00 49.33 12.00 52.00 12.00 C 52.00 14.67 52.00 17.34 52.00 20.00 C 49.33 20.00 46.66 20.00 44.00 20.00 C 44.00 17.33 44.00 14.67 44.00 12.00 Z" />
<path fill="#000000" opacity="1.00" d=" M 62.34 12.38 C 67.15 11.53 72.11 12.20 76.98 11.97 C 79.48 11.90 83.12 11.81 83.79 14.94 C 84.23 20.63 84.02 26.39 83.92 32.10 C 84.02 34.19 82.15 36.02 80.07 35.93 C 74.66 36.08 69.24 36.09 63.83 35.92 C 61.81 35.94 59.97 34.15 60.07 32.10 C 59.87 27.05 60.01 21.98 60.00 16.93 C 59.89 15.13 60.56 13.14 62.34 12.38 M 68.00 20.00 C 68.00 22.67 68.00 25.33 68.00 28.00 C 70.66 28.00 73.33 28.00 76.00 28.00 C 76.00 25.33 75.99 22.67 76.00 20.00 C 73.33 20.00 70.67 20.00 68.00 20.00 Z" />
<path fill="#000000" opacity="1.00" d=" M 44.00 28.00 C 46.67 28.00 49.33 28.00 52.00 28.00 C 52.00 30.67 52.00 33.33 52.00 36.00 C 49.33 36.00 46.67 36.00 44.00 36.00 C 44.00 33.33 44.00 30.67 44.00 28.00 Z" />
<path fill="#000000" opacity="1.00" d=" M 12.00 44.00 C 14.67 44.00 17.33 44.00 20.00 44.00 C 20.00 46.67 20.00 49.33 20.00 52.00 C 17.33 52.00 14.67 52.00 12.00 52.00 C 12.00 49.33 12.00 46.66 12.00 44.00 Z" />
<path fill="#000000" opacity="1.00" d=" M 28.00 44.00 C 30.67 44.00 33.33 44.00 36.00 44.00 C 36.00 46.67 36.00 49.33 36.00 52.00 C 33.33 51.99 30.66 51.99 28.00 52.00 C 28.00 49.33 28.00 46.66 28.00 44.00 Z" />
<path fill="#000000" opacity="1.00" d=" M 44.00 44.00 C 46.66 44.00 49.33 44.00 52.00 44.00 C 52.00 46.66 52.00 49.33 52.00 52.00 C 49.33 52.00 46.66 52.00 44.00 52.00 C 44.00 49.33 44.00 46.66 44.00 44.00 Z" />
<path fill="#000000" opacity="1.00" d=" M 60.00 44.00 C 62.67 44.00 65.33 44.00 68.00 44.00 C 68.00 46.66 68.00 49.33 68.00 52.00 C 65.33 52.00 62.67 52.00 60.00 52.00 C 60.00 49.33 60.00 46.66 60.00 44.00 Z" />
<path fill="#000000" opacity="1.00" d=" M 76.00 44.00 C 78.67 44.00 81.33 44.00 84.00 44.00 C 84.00 46.66 84.00 49.33 84.00 52.00 C 81.34 52.00 78.67 52.00 76.00 52.00 C 76.00 49.33 76.00 46.67 76.00 44.00 Z" />
<path fill="#000000" opacity="1.00" d=" M 52.00 52.00 C 54.67 52.00 57.33 52.00 60.00 52.00 C 60.00 54.67 60.00 57.33 60.00 60.00 C 57.33 60.00 54.67 60.00 52.00 60.00 C 52.00 57.33 52.00 54.67 52.00 52.00 Z" />
<path fill="#000000" opacity="1.00" d=" M 68.00 52.00 C 70.67 52.00 73.33 52.00 76.00 52.00 C 76.00 54.67 76.00 57.33 76.00 60.00 C 73.33 60.00 70.67 60.00 68.00 60.00 C 68.00 57.33 68.00 54.67 68.00 52.00 Z" />
<path fill="#000000" opacity="1.00" d=" M 14.30 60.40 C 19.12 59.51 24.09 60.21 28.98 59.97 C 31.48 59.91 35.13 59.80 35.79 62.94 C 36.23 68.62 36.02 74.36 35.93 80.05 C 36.03 82.12 34.21 84.01 32.12 83.92 C 26.72 84.08 21.30 84.09 15.90 83.92 C 13.82 83.98 11.94 82.13 12.07 80.04 C 11.88 75.04 12.01 70.02 12.00 65.02 C 11.89 63.20 12.50 61.18 14.30 60.40 M 20.00 68.00 C 20.00 70.67 20.00 73.33 20.00 76.00 C 22.67 76.00 25.33 76.00 28.00 76.00 C 28.00 73.33 28.00 70.67 28.00 68.00 C 25.33 68.00 22.67 68.00 20.00 68.00 Z" />
<path fill="#000000" opacity="1.00" d=" M 44.00 60.00 C 46.66 60.00 49.33 60.00 52.00 60.00 C 52.00 62.67 52.00 65.33 52.00 68.00 C 49.33 68.00 46.66 68.00 44.00 68.00 C 44.00 65.33 44.00 62.67 44.00 60.00 Z" />
<path fill="#000000" opacity="1.00" d=" M 60.00 60.00 C 62.67 60.00 65.33 60.00 68.00 60.00 C 68.00 62.67 68.00 65.33 68.00 68.00 C 65.33 68.00 62.67 68.00 60.00 68.00 C 60.00 65.33 60.00 62.67 60.00 60.00 Z" />
<path fill="#000000" opacity="1.00" d=" M 76.00 60.00 C 78.67 60.00 81.33 60.00 84.00 60.00 C 84.00 62.67 84.00 65.33 84.00 68.00 C 81.34 68.00 78.67 68.00 76.00 68.00 C 76.00 65.33 76.00 62.67 76.00 60.00 Z" />
<path fill="#000000" opacity="1.00" d=" M 52.00 68.00 C 54.67 68.00 57.33 68.00 60.00 68.00 C 60.00 70.67 60.00 73.33 60.00 76.00 C 57.33 76.00 54.67 76.00 52.00 76.00 C 52.00 73.33 52.00 70.67 52.00 68.00 Z" />
<path fill="#000000" opacity="1.00" d=" M 68.00 68.00 C 70.67 68.00 73.33 68.00 76.00 68.00 C 76.00 70.67 76.00 73.33 76.00 76.00 C 73.33 76.00 70.67 76.00 68.00 76.00 C 68.00 73.33 68.00 70.67 68.00 68.00 Z" />
<path fill="#000000" opacity="1.00" d=" M 44.00 76.00 C 46.66 76.00 49.33 76.00 52.00 76.00 C 52.00 78.67 52.00 81.33 52.00 84.00 C 49.33 84.00 46.66 84.00 44.00 84.00 C 44.00 81.33 44.00 78.67 44.00 76.00 Z" />
<path fill="#000000" opacity="1.00" d=" M 60.00 76.00 C 62.67 76.00 65.33 76.00 68.00 76.00 C 68.00 78.67 68.00 81.33 68.00 84.00 C 65.33 83.99 62.67 83.99 60.00 84.00 C 60.00 81.33 60.00 78.67 60.00 76.00 Z" />
<path fill="#000000" opacity="1.00" d=" M 76.00 76.00 C 78.67 76.00 81.33 76.00 84.00 76.00 C 84.00 78.67 84.00 81.33 84.00 84.00 C 81.33 83.99 78.67 83.99 76.00 84.00 C 76.00 81.33 76.00 78.67 76.00 76.00 Z" />
</g>
</svg>
