<?xml version="1.0" encoding="UTF-8" ?>
<!DOCTYPE svg PUBLIC "-//W3C//DTD SVG 1.1//EN" "http://www.w3.org/Graphics/SVG/1.1/DTD/svg11.dtd">
<svg width="96pt" height="96pt" viewBox="0 0 96 96" version="1.1" xmlns="http://www.w3.org/2000/svg">
<g id="#000000ff">
<path fill="#000000" opacity="1.00" d=" M 16.00 8.00 C 37.33 8.00 58.67 8.00 80.00 8.00 C 80.00 12.00 80.00 16.00 80.00 20.00 C 77.33 20.00 74.66 20.00 72.00 20.00 C 71.95 25.76 72.53 31.80 70.12 37.20 C 68.38 41.62 65.07 45.15 61.36 48.01 C 66.21 51.50 69.98 56.57 71.32 62.45 C 72.31 66.89 71.96 71.48 72.00 76.00 C 74.66 76.00 77.33 76.00 80.00 76.00 C 80.00 80.00 80.00 84.00 80.00 88.00 C 58.67 88.00 37.33 88.00 16.00 88.00 C 16.00 84.00 16.00 80.00 16.00 76.00 C 18.67 76.00 21.34 76.00 24.00 76.00 C 24.05 70.23 23.46 64.18 25.88 58.77 C 27.64 54.39 30.87 50.79 34.64 48.01 C 30.92 45.15 27.60 41.60 25.86 37.17 C 23.45 31.77 24.06 25.75 24.00 20.00 C 21.34 20.00 18.67 20.00 16.00 20.00 C 16.00 16.00 16.00 12.00 16.00 8.00 M 32.01 20.00 C 32.07 25.56 31.27 31.62 34.42 36.55 C 36.45 40.30 40.19 42.56 43.99 44.19 C 44.00 46.76 44.00 49.33 43.98 51.90 C 39.62 53.42 35.70 56.42 33.73 60.68 C 31.33 65.43 32.11 70.88 32.01 76.00 C 33.27 76.00 34.54 76.00 35.80 76.00 C 36.34 73.16 36.98 70.15 39.07 68.00 C 43.20 63.14 51.35 62.72 55.99 67.07 C 58.65 69.28 59.66 72.71 60.19 76.00 C 61.46 76.00 62.72 76.00 63.99 76.00 C 63.91 70.67 64.68 64.93 61.95 60.07 C 59.92 56.10 56.15 53.37 52.02 51.90 C 52.00 49.32 52.00 46.75 52.01 44.18 C 55.79 42.56 59.52 40.31 61.54 36.59 C 64.72 31.64 63.94 25.57 63.99 20.00 C 53.33 20.00 42.67 20.00 32.01 20.00 Z" />
<path fill="#000000" opacity="1.00" d=" M 35.81 28.04 C 43.94 27.98 52.06 27.98 60.19 28.04 C 59.64 32.28 57.62 36.67 53.55 38.55 C 48.46 41.50 41.44 39.65 38.18 34.84 C 36.73 32.86 36.31 30.38 35.81 28.04 Z" />
</g>
</svg>
